/* XPM */
static char *_d504b65f20740c1ed3ec14196046734Upr2Yn0QPSgG1eW6[] = {
/* columns rows colors chars-per-pixel */
"50 50 5 1 ",
"  c None",
". c #293C42",
"X c #394D63",
"o c #5A697B",
"O c #637D8C",
/* pixels */
"  OOOOOOOOOOOO...XXX............XXX...OOOOOOOOOOOO",
"  OOOOOOOOOOOO...XXX............XXX...OOOOOOOOOOOO",
"  OOOOOOOOOOOO...XXX............XXX...OOOOOOOOOOOO",
"  OOOOOOoooXXXXXX..................XXXXXXoooOOOOOO",
"  OOOOOOoooXXXXXX..................XXXXXXoooOOOOOO",
"  OOOOOOoooXXXXXX..................XXXXXXoooOOOOOO",
"  OOOOOO....................................OOOOOO",
"  OOOOOO....................................OOOOOO",
"  OOOOOO....................................OOOOOO",
"  ooo...XXXXXX........................XXXXXX...OOO",
"  ooo...XXXXXX........................XXXXXX...OOO",
"  ooo...XXXXXX........................XXXXXX...OOO",
"  ......XXX..............................XXX......",
"  ......XXX..............................XXX......",
"  ......XXX..............................XXX......",
"  XXXXXX....................................XXXXXX",
"  XXXXXX....................................XXXXXX",
"  XXXXXX....................................XXXXXX",
"  ................................................",
"  ................................................",
"  ................................................",
"  ................................................",
"  ................................................",
"  ................................................",
"  ................................................",
"  ................................................",
"  ................................................",
"  ................................................",
"  ................................................",
"  ................................................",
"  ................................................",
"  ................................................",
"  ................................................",
"  ................................................",
"  ................................................",
"  ................................................",
"  XXX..........................................XXX",
"  XXX..........................................XXX",
"  XXX..........................................XXX",
"  OOOooo....................................oooOOO",
"  OOOooo....................................oooOOO",
"  OOOooo....................................oooOOO",
"  OOOOOOOOOXXX........................XXXOOOOOOOOO",
"  OOOOOOOOOXXX........................XXXOOOOOOOOO",
"  OOOOOOOOOXXX........................XXXOOOOOOOOO",
"  OOOOOOOOOooo........................oooOOOOOOOOO",
"  OOOOOOOOOooo........................oooOOOOOOOOO",
"  OOOOOOOOOooo........................oooOOOOOOOOO",
"                                                  ",
"                                                  "
};
