/* XPM */
static char *_9cb7517f1a84acdf78cbed614718bd9jGcZUX9vZ7a8Dnj9[] = {
/* columns rows colors chars-per-pixel */
"128 64 25 1 ",
"  c black",
". c #141413",
"X c #1C1C1B",
"o c #191B1D",
"O c #210401",
"+ c #2D0501",
"@ c #2D0801",
"# c #380901",
"$ c #24130F",
"% c #2F1C17",
"& c #331817",
"* c #3B1A13",
"= c #28221F",
"- c #242A2B",
"; c #292A28",
": c #332320",
"> c #3F2B27",
", c #382B2F",
"< c #4B3F38",
"1 c #383F40",
"2 c #334043",
"3 c #464D4F",
"4 c #536265",
"5 c #62797E",
"6 c #889C9E",
/* pixels */
"1,3333331,3313331,3333331,3333331,3333331,3313331,3333331,333333                                                                ",
"=5,33333=5,13333=5,33313=5,33333=5,33333=5,13333=5,33313=5,333333313111. 333333333333333333333333=333131333333333313111. 3333333",
"3=4,33331=4,33333=4,31313=4,33133=4,33331=4,33333=4,31313=4,33131111111. 311111111111111111111311=111111111111111111111. 3111111",
"33=1333131=1333333=1131313=1333333=1333131=1333333=1131313=133331111111. 311111111111111111111411,111111111111111111111. 3111111",
"333333,1333333,1333133,1333313,1333333,1333333,1333133,1333313,111,5311. 31,531111111111111111311=111111111111111,53111. 3,53111",
"33333,5=33333,5=33333,5=33333,5=33333,5=33333,5=33333,5=33333,5=11,3311. 31,331111111111111111411,111111111111111,33111. 3,33,11",
"3333,4=33333,4=33333,4=33333,4=33333,4=33333,4=33333,4=33333,4=311,,111. 31,,11111111111111111411,111111111111111,,1111. 3,,,111",
"33311=3333331=3133331=3333311=3333311=3333331=3133331=3333311=331111111. 311111111111111111111411,111111111111111111111. 31,,111",
"1,3313331,333313113311131,1313331,3313331,333313113311131,1313333333333=.5333333333333333333335331333333333333333333333=.53<<333",
"=5,13333=5,13133=5,33133=5,13333=5,13333=5,13133=5,33133=5,133331111111. 311111111111111111111411,111111111111111111111. 31,,111",
"3=4,13333=4,13333=4,13333=4,33333=4,13333=4,13333=4,13333=4,33333333333=.5333333333333333333335331333333333333333333333=.53<<333",
"31=133333331313333=1333331=1333331=133333331313333=1333331=133333333333. 5333333333333333333335331333333333333333333333. 53<<333",
"333333,1331113,1333333,1333333,1333333,1331113,1333333,1333333,13333333=.5333333333333333333335331333333333333333333333=.533<333",
"33333,5=31313,5=33333,5=33333,5=33333,5=31313,5=33333,5=33333,5=3333333=.5333346666656555555553333455555454444444333333=.53<3333",
"3333,4=31333,4=33333,4=33333,4=33333,4=31333,4=33333,4=33333,4=33333333=.5333463333333333333333333333333333333333333333=.533<333",
"33331=3333331=3333331=1333311=3333331=3333331=3333331=1333311=333333333=.5333635333333333333333333333333333333335313333=.53<3333",
"1,3133331,3333311,3331331,1333331,3133331,3333311,3331331,1333333333333..43336,331,,,,,,,,,1,1,1111111313133333,3313333..4333333",
"=5,33333=5,33313=5,31333=5,333#>=5,33333=5,33313=5,31333=5,333333333333=.53336331.............................;33313333=.5333333",
"3=4,33333=4,31333=4,33333=4,13333=4,33333=4,31333=4,33333=4,13333333333..4333633,.52-----o-oooo.o.o............33313333..4333333",
"13=1333313=1133333=1133333=1333313=1333313=1133333=1133333=133333333333=.5333633,.2-oooooooo.o.o...............43313333=.5333333",
"333333,1333133,1313133,1#31333+1333333,1333133,1313133,1331333,13333333..4333533,.-oooooo.o.o..................43313333..4333333",
"33333,5=13133,5=13133,5=31333,5O>3333,5=13133,5=13133,5=31333,5=3333333=.4333633,.-ooo.o.o.................... 43313333=.4333333",
"3333,4=11133,4=13333,4=33333,4O3#33>+4=11133,4=13333,4=33333,4=33333333X.4333533,.-oo.o........................43313333X.4333333",
"33331=1313331=1333331=33###1@=31333#@=1313331=1333331=3333311=313333333X.4333533,.oo.o........................ 43313333X.4333333",
"1,3111311,33333311313333@+@31313@,3@113:@,333333113133331,1313133333333XX4333533,.-oo......................... 53313333XX4333333",
"=5,31333=5,33333=5,33331=5+@1133O5,313##=5,33333=5,33331=5,111333333333X.4333533,.oo.......................... 43313333X.4333333",
"3=4,33333=4,33333=4,33131=4+@333>=4+3333#O4,33333=4,33131=4,13333333333.X4333533,.o........................... 53313333.X4333333",
"33=133331311331333=13131#1=1##>>>#O13###@#@:331333=1313131=133333333333X.43335331..o.......................... 53313333X.4333333",
"333331,1333131,1333333,33#@*3*&@##33#@&:###@31,1333333,3331333,13333333..4333533,.o........................... 53313333..4333333",
"33331,5=33131,5=3333#+5=3133#+5O####@+5=3>@#1,5=33333,5=31333,5=3333333..43334331..o.......................... 53313333..4333333",
"3333,4=33331,4=33333,4=31#3#+4O###>#+4$33331,4=33333,4=31333,4=33333333.=43335331.o........................... 53313333.=4333333",
"33331=3333331=333333@O3#33##@O#####31=#33333@=3333331=3333331=333333333=.43334331............................. 533,3333=.4333333",
"1,3333331,3313331,#333331+##>###@+###3331,3313331,3333331,3333333333333.=43334331.o........................... 63313333.=4333333",
"=5,33333=5,13333=5,33313$5+#>###O5+3>##3=5,13333=5,33313=5,333333333333=.43334331............................. 533,3333=.4333333",
"3=4,33331=4,33333=4,>@#1#=4,#3@#3=4,33##:=4,33333=4,31313=4,33133333333.=43334333............................. 633,3333.=4333333",
"33=1333131=1333333=1@#1313=1#3###3=@333131=1333333=1131313=133333333333==43334331............................. 533,3333==4333333",
"333333,1333333,1333133,1333#@3+@#33##3,1333333,1333133,1333313,13333333==43334333............................. 633,3333=.4333333",
"33333,5=33333,5=33333,5O333##,5=3#3##+5=33333,5=33333,5=33333,5=5555353=.43334333............................. 633,3333..4333333",
"3333,4=33333,4=33333,4$#33##+4=3333>+4O33333,4=33333,4=33333,4=3         43334333............................. 633,3333..       ",
"33311=3333331=3133331=3333#@@=#33331@O>333331=3133331=3333311=33         43334333............................  633,3333.;       ",
"1,3313331,333313113311131,:#13#31,3313331,333313113311131,131333X. .X....43334333;..... .                     ;533,3333... .X...",
"=5,13333=5,13133=5,33133=5,1333#=5,133>3=5,13133=5,33133=5,13333;. ;;X.;.43334333334343444444444454555555666665333,3333.;. ;;X.;",
"3=4,13333=4,13333=4,13333O4,33333=4,13#33=4,13333=4,13333=4,3333;. ;;XX;X43334353333333333333333333333333333333353,3333.;. ;;XX;",
"31=133333331313333=133333@=1333331=133333331313333=1333331=13333;. ;;XX;.43333,33333333333333333333333333333333,3,13333.;. ;;XX;",
"333333,1331113,1333333,1>33333,1333333,1331113,1333333,1333333,1;X.;;XX;X3333331111111111,1,1,,,,,,,,,,,,,,,,,,,,133333.;X.;;XX;",
"33333,5=31313,5=33333,5=33333,5=33333,5=31313,5=33333,5=33333,5=;. ;;XX;X4333333333333333333333333333333333333333333333 ;. ;;XX;",
"3333,4=31333,4=33333,4=33333,4O33333,4=31333,4=33333,4=33333,4=3;X.;;XX;X4333333333333333333333333333333333333333333333.;X.;;XX;",
"33331=3333331=3333331=1333311=3333331=3333331=3333331=1333311=33;X ;;XX;X5333333333333333333333333333333333333333333333 ;X ;;XX;",
"1,3133331,3333311,3331331,1333331,3133331,3333311,3331331,133333;X.;;XX;X5555555535353555555555555555555535355555535333 ;X.;;XX;",
"=5,33333=5,33313=5,31333=5,33333=5,33333=5,33313=5,31333=5,33333;X.;;XX;X                                               ;X.;;XX;",
"3=4,33333=4,31333=4,33333=4,13333=4,33333=4,31333=4,33333=4,1333;..;;XX;X. .X...X. .X...X. .X...X. .X...X. .X...X. .X...;..;;XX;",
"13=1333313=1133333=1133333=1333313=1333313=1133333=1133333=13333;X.;;XX;;. ;;X.;;. ;;X.;;. ;;X.;;. ;;X.;;. ;;X.;;. ;;X.;;X.;;XX;",
"333333,1333133,1313133,1331333,1333333,1333133,1313133,1331333,1X. ;XXX;;. ;;XX;;. ;;XX;;. ;;XX;;. ;;XX;;. ;;XX;;. ;;XX;X. ;XXX;",
"33333,5=13133,5=13133,5=31333,5=33333,5=13133,5=13133,5=31333,5=;..X;XX;;. ;;XX;;. ;;XX;;. ;;XX;;. ;;XX;;. ;;XX;;. ;;XX;;..X;XX;",
"3333,4=11133,4=13333,4=33333,4=33333,4=11133,4=13333,4=33333,4=3X. ;XX.;X. ;XX.;X. ;XX.;X. ;XX.;X. ;XX.;X. ;XX.;X. ;XX.;X. ;XX.;",
"33331=1313331=1333331=3333311=3133331=1313331=1333331=3333311=31X  XX. XX  XX. XX  XX. XX  XX. XX  XX. XX  XX. XX  XX. XX  XX. X",
"1,3111311,333333113133331,1313131,3111311,333333113133331,1313135555555554555545454545444444545454555555555555555555555554555545",
"=5,31333=5,33333=5,33331=5,11133=5,31333=5,33333=5,33331=5,111333333333313333333333333333133333333333331313333331313333313333333",
"3=4,33333=4,33333=4,33131=4,13333=4,33333=4,33333=4,33131=4,13333133333133333333333333311333333333333333133333333133333133333333",
"33=133331311331333=1313131=1333333=133331311331333=1313131=133331335133333351333333513313335133333351331333513331335133333351333",
"333331,1333131,1333333,3331333,1333331,1333131,1333333,3331333,133,1133333,1133333,1131313,1133333,1133333,1133133,1133333,11331",
"33331,5=33131,5=33333,5=31333,5=33331,5=33131,5=33333,5=31333,5=13,,333333,,333333,,333133,,333333,,333333,,331133,,333333,,3313",
"3333,4=33331,4=33333,4=31333,4=33333,4=33331,4=33333,4=31333,4=33333333333333333333333133333333333331333333333133333333333333131",
"33331=3333331=3333331=3333331=3333331=3333331=3333331=3333331=33,%%%%%%,%,%,,,,,,,%,%,.,.,....,.,,,,,,,,%,%,,%,%,%%%%%%,%,%,,,,,"
};
