/* XPM */
static char *c0198891b4704dbdb8340e15443ff9f5QDSTYNw2ehOHCDbv[] = {
/* columns rows colors chars-per-pixel */
"80 80 35 1 ",
"  c None",
". c #130C18",
"X c #120D18",
"o c #130D18",
"O c #130C19",
"+ c #130D19",
"@ c #140C18",
"# c #140C19",
"$ c #140D19",
"% c #0D310D",
"& c #2C3131",
"* c #2D3032",
"= c #2C3132",
"- c #2D3132",
"; c #2C3232",
": c #580E1A",
"> c #590E1A",
", c #580F1A",
"< c #590F1A",
"1 c #580E1B",
"2 c #590E1B",
"3 c #580F1B",
"4 c #590F1B",
"5 c #5A0E1A",
"6 c #59101A",
"7 c #104310",
"8 c #125112",
"9 c #483F55",
"0 c #56850E",
"q c #74B611",
"w c #53A136",
"e c #6DB950",
"r c #BDA9AF",
"t c #C2A8AB",
"y c #EBE7E7",
/* pixels */
"                                                                                ",
"                                                                                ",
"                                                                                ",
"                                                                                ",
"                                                                                ",
"                                                                                ",
"                                                                                ",
"                                                                                ",
"                                                                                ",
"                                                                                ",
"                                                                                ",
"                                                                                ",
"                                                                                ",
"                                    44<6                                        ",
"                                  444444444                                     ",
"                                 44444....44                                    ",
"                                44444444...4                                    ",
"                               <444444444...                                    ",
"                               .44444.4444.4<                                   ",
"                              <.44444..44..-<                                   ",
"                              4..444...4...=<                                   ",
"                              4........44...4                                   ",
"                              4........444..4                                   ",
"                              4........444...                                   ",
"                             4..yy.yy...444..                                   ",
"                             4...........44...                                  ",
"                             4...........44...                                  ",
"                            -4...........44...                                  ",
"                            <<4.........444....                                 ",
"                            444........444.....                                 ",
"                           -4444......4444...44<                                ",
"                           ..4444....4444...4444                                ",
"                          44..444...4444...444444                               ",
"                          444..44.4.4444..4444444                               ",
"                         44444..4.44.44..44.44444<                              ",
"                         4444444..44.4..444.444444                              ",
"                        44444444..44.444444..44444<                             ",
"                        444O444.4444.444444.....O44                             ",
"                       4444O44444444.44444.....4<O<                             ",
"                       444<O4.44444444444...44..444                             ",
"                       4444.4.4444444444...4444.4444                            ",
"                       4444.4..44444444.4444444.444<                            ",
"                       4444444.4.44444.444444444444.                            ",
"                       444.....4.4444rrrr9.4444444.                             ",
"                       44.444..4.444yyyyr9.444444O.                             ",
"                       4.4....4..44%ryyy%w.44444OO.                             ",
"                       44..4444.444%rtrt.w.4444....                             ",
"                       <..444.4.4..%44...w.4444....                             ",
"                       ;.4444...4..4%4..w..466....                              ",
"                       .66444...4..44%%w...44.....                              ",
"                        444444..4..444%...44......                              ",
"                        O444.4...4.4478e..44......                              ",
"                         O4..44..4.47888e.4......                               ",
"                          44.44..4.47q08e........                               ",
"                          44.44....47q08e........                               ",
"                           4.44.4..47q08e.......                                ",
"                           6.44....47888e... ...                                ",
"                            ..4.4..4.78e...  ...                                ",
"                            ..4.4..4.4.....  ..                                 ",
"                             .444..4.4....@  ..                                 ",
"                              .64..4.4....  -.                                  ",
"                               .4..4.4..-.  X@                                  ",
"                               .4..4=4...   .                                   ",
"                                $..4=4..   .                                    ",
"                                 @.664=.                                        ",
"                                   .44=                                         ",
"                                     44                                         ",
"                                                                                ",
"                                                                                ",
"                                                                                ",
"                                                                                ",
"                                                                                ",
"                                                                                ",
"                                                                                ",
"                                                                                ",
"                                                                                ",
"                                                                                ",
"                                                                                ",
"                                                                                ",
"                                                                                "
};
